<svg width="354" height="354" viewBox="0 0 354 354" fill="none" xmlns="http://www.w3.org/2000/svg">
<path d="M166.004 0L154.567 25.9976C148.658 26.3552 142.767 27.0988 136.932 28.2195L119.437 5.7277L100.579 12.1108L100.485 40.7268C92.4971 44.8146 84.8418 49.7568 77.6104 55.5249L50.9595 43.5787L37.3151 58.0274L50.9588 83.7908C46.5612 90.0347 42.7489 96.5629 39.5229 103.313L10.2621 104.107L4.32096 123.02L27.9457 140.345C26.8147 147.363 26.2624 154.453 26.2309 161.55L0 174.782L2.74738 194.421L31.5385 200.032C33.2549 206.003 35.3763 211.872 37.926 217.613L18.9521 241.063L29.5426 257.848L59.0378 250.975C60.894 253.141 62.823 255.282 64.8377 257.357C69.0782 261.722 73.5285 265.74 78.1538 269.42L72.4238 298.832L89.661 308.744L112.181 289.223C118.648 291.813 125.283 293.884 132.025 295.441L139.376 324.174L159.219 325.788L171.148 298.69C179.392 298.196 187.609 296.97 195.688 294.996L214.64 316.856L233.121 309.492L232.58 298.41L189.441 265.844C176.883 269.004 163.86 269.851 151.069 268.414C127.207 265.736 104.275 255.008 86.2787 236.479C45.1446 194.125 46.3207 126.751 88.8622 85.801C109.468 65.9658 135.972 55.9034 162.506 55.6184C190.754 55.3147 219.028 66.0892 240.237 87.928C274.756 123.473 279.461 176.944 254.937 217.426L278.962 235.568C281.966 230.87 284.669 226.029 287.04 221.073L316.088 220.278L322.029 201.365L298.571 184.158C299.708 177.083 300.271 169.917 300.284 162.766L326.351 149.58L323.605 129.942L294.838 124.331C292.436 116.106 289.244 108.05 285.257 100.297L302.398 76.6604L290.938 60.4581L262.713 68.6172C262.358 68.2431 262.014 67.8638 261.655 67.495C257.147 62.8528 252.389 58.5997 247.424 54.7289L252.826 26.9545L235.586 17.0424L214.169 35.6066C207.236 32.8288 200.115 30.6667 192.893 29.0604L185.872 1.61297L166.004 0ZM122.302 114.838C114.529 114.927 106.824 116.827 99.7578 120.285L133.739 145.956C144.016 153.719 146.931 168.471 139.045 178.827C131.156 189.188 116.008 190.746 105.582 182.873L71.6242 157.225C68.1472 175.774 74.7316 195.427 90.8574 207.607C105.319 218.528 123.88 220.573 139.868 214.855L143.46 213.569L146.489 215.86L248.08 292.591L251.109 294.882L250.85 298.67C249.62 315.54 256.554 332.792 271.023 343.72C287.149 355.9 307.954 356.91 324.963 348.583L291.007 322.937C280.581 315.062 278.02 300.115 285.912 289.762C293.803 279.408 308.86 278.237 319.14 285.997L353.098 311.646C356.566 293.104 350.009 273.441 333.888 261.263C319.375 250.297 300.96 248.125 285.066 253.757L281.497 255.02L278.468 252.729L176.877 175.999L173.848 173.707L174.107 169.944C175.272 153.196 168.208 136.133 153.699 125.172C144.273 118.053 133.243 114.715 122.303 114.839L122.302 114.838ZM155.038 182.357L278.186 275.383L269.708 286.535L146.537 193.486L155.038 182.357Z" fill="white"/>
</svg>
