<svg width="32" height="32" viewBox="0 0 32 32" fill="none" xmlns="http://www.w3.org/2000/svg">
<path d="M15.0061 0L13.9722 2.35006C13.438 2.38239 12.9055 2.44961 12.3781 2.55092L10.7965 0.517758L9.0919 1.09476L9.08341 3.68152C8.36132 4.05104 7.66932 4.49779 7.01563 5.0192L4.60651 3.93932L3.37311 5.24541L4.60644 7.57431C4.20892 8.13873 3.86431 8.72885 3.57269 9.33899L0.927646 9.41081L0.390595 11.1204L2.52617 12.6866C2.42393 13.3209 2.374 13.9619 2.37115 14.6034L0 15.7995L0.248351 17.5748L2.85094 18.082C3.00609 18.6218 3.19785 19.1523 3.42834 19.6712L1.71318 21.791L2.67052 23.3083L5.33675 22.687C5.50454 22.8828 5.67891 23.0764 5.86103 23.2639C6.24436 23.6585 6.64664 24.0217 7.06475 24.3544L6.54678 27.013L8.10495 27.9091L10.1407 26.1444C10.7253 26.3785 11.325 26.5657 11.9345 26.7065L12.599 29.3039L14.3927 29.4497L15.471 27.0003C16.2162 26.9556 16.959 26.8447 17.6893 26.6663L19.4025 28.6424L21.0731 27.9767L21.0242 26.9749L17.1246 24.0311C15.9894 24.3168 14.8122 24.3933 13.656 24.2634C11.4989 24.0213 9.42598 23.0515 7.7992 21.3767C4.08087 17.548 4.18718 11.4577 8.03274 7.75603C9.89537 5.96301 12.2912 5.05342 14.6898 5.02765C17.2433 5.00019 19.7991 5.97417 21.7163 7.94829C24.8367 11.1614 25.262 15.995 23.0452 19.6543L25.2169 21.2943C25.4884 20.8696 25.7327 20.432 25.9471 19.984L28.573 19.9121L29.11 18.2025L26.9894 16.6471C27.0922 16.0075 27.1431 15.3598 27.1443 14.7133L29.5007 13.5214L29.2524 11.7461L26.652 11.2389C26.4349 10.4955 26.1464 9.76721 25.7859 9.06638L27.3354 6.92975L26.2995 5.46514L23.7481 6.20268C23.716 6.16887 23.6849 6.13458 23.6524 6.10124C23.245 5.68161 22.8148 5.29715 22.366 4.94724L22.8543 2.43656L21.2959 1.54056L19.3599 3.21868C18.7332 2.96757 18.0895 2.77213 17.4366 2.62693L16.802 0.145805L15.0061 0ZM11.0555 10.3809C10.3529 10.3888 9.6564 10.5606 9.01765 10.8732L12.0894 13.1938C13.0184 13.8955 13.2819 15.229 12.569 16.1651C11.8559 17.1018 10.4866 17.2426 9.54411 16.5309L6.47451 14.2125C6.1602 15.8891 6.75539 17.6657 8.2131 18.7668C9.5204 19.7539 11.1982 19.9388 12.6435 19.422L12.9682 19.3056L13.2419 19.5128L22.4253 26.449L22.6991 26.656L22.6757 26.9984C22.5645 28.5234 23.1913 30.0829 24.4992 31.0708C25.957 32.1717 27.8376 32.263 29.3752 31.5103L26.3057 29.1921C25.3633 28.4802 25.1318 27.129 25.8452 26.1932C26.5584 25.2572 27.9195 25.1514 28.8488 25.8529L31.9184 28.1714C32.232 26.4953 31.6392 24.7178 30.1819 23.617C28.87 22.6258 27.2055 22.4294 25.7687 22.9385L25.446 23.0527L25.1723 22.8455L15.9889 15.9095L15.7151 15.7024L15.7385 15.3622C15.8438 13.8482 15.2052 12.3058 13.8937 11.315C13.0416 10.6715 12.0445 10.3697 11.0556 10.3809L11.0555 10.3809ZM14.0148 16.4843L25.1467 24.8934L24.3803 25.9014L13.2463 17.4902L14.0148 16.4843Z" fill="#0E2A47"/>
</svg>
